<?xml version="1.0" encoding="utf-8"?>
<!-- Generator: Adobe Illustrator 21.0.0, SVG Export Plug-In . SVG Version: 6.00 Build 0)  -->
<svg version="1.1" id="Layer_1" xmlns="http://www.w3.org/2000/svg" xmlns:xlink="http://www.w3.org/1999/xlink" x="0px" y="0px"
	 viewBox="0 0 87.3 17.5" style="enable-background:new 0 0 87.3 17.5;" xml:space="preserve">
<style type="text/css">
	.st0{fill:#0EDC8D;}
</style>
<title>logo</title>
<path class="st0" d="M28.3,8.4V11h4.9v2h-6.8V2.1h6.8v2h-4.9v2.4h4.3v1.9L28.3,8.4z"/>
<path class="st0" d="M39.9,2.1h2v10.8h-2v-0.8c-0.6,0.7-1.5,1-2.4,1c-0.5,0-0.9-0.1-1.3-0.3c-0.4-0.2-0.8-0.4-1.1-0.7
	c-0.3-0.3-0.6-0.8-0.8-1.2C34.1,10.4,34,9.9,34,9.3c0-0.5,0.1-1,0.2-1.4C34.5,7.1,35,6.5,35.6,6c0.3-0.2,0.6-0.4,1-0.5
	c0.4-0.1,0.7-0.2,1.1-0.2c0.8,0,1.6,0.3,2.2,0.9V2.1z M39.9,9.2c0-0.6-0.2-1.1-0.6-1.6c-0.4-0.4-0.9-0.6-1.4-0.6
	c-0.5,0-1,0.2-1.4,0.6c-0.4,0.4-0.6,1-0.6,1.5c0,0.6,0.2,1.2,0.6,1.6c0.4,0.4,0.9,0.6,1.4,0.6c0.5,0,1-0.2,1.4-0.6
	C39.7,10.4,39.9,9.8,39.9,9.2z"/>
<path class="st0" d="M48.9,5.6h1.9v7.3h-1.9v-0.8c-0.5,0.7-1.2,1-2,1c-0.9,0.1-1.8-0.2-2.5-0.8c-0.7-0.8-1-1.9-0.9-2.9V5.6h1.9v3.6
	c0,0.5,0.1,1.1,0.5,1.5c0.3,0.4,0.7,0.6,1.2,0.6c0.5,0,1-0.2,1.3-0.6c0.4-0.5,0.6-1.2,0.5-1.8L48.9,5.6z"/>
<path d="M57.2,8.5V6.6h5.2v6.3h-2v-0.8c-0.8,0.7-1.8,1-2.9,1c-0.8,0-1.6-0.1-2.3-0.4c-0.7-0.3-1.3-0.7-1.8-1.2
	c-0.5-0.5-0.8-1.1-1.1-1.8C52.1,9.1,52,8.3,52,7.6c0-1.2,0.3-2.4,1-3.3c0.3-0.5,0.7-0.9,1.2-1.2c0.4-0.4,0.9-0.6,1.5-0.8
	c0.5-0.2,1.1-0.3,1.7-0.3c1.1,0,2.2,0.3,3.1,0.9c0.9,0.6,1.6,1.4,2,2.4l-2,0.7c-0.2-0.6-0.7-1.1-1.2-1.4c-0.5-0.3-1.2-0.5-1.8-0.5
	c-0.9,0-1.7,0.3-2.3,1c-0.6,0.7-0.9,1.7-0.9,2.6c0,0.9,0.3,1.8,0.9,2.5c1.2,1.1,2.9,1.3,4.3,0.4c0.6-0.5,1-1.2,1-1.9L57.2,8.5z"/>
<path d="M68,5.6h0.4v1.8c-0.2-0.1-0.4-0.1-0.6-0.1c-0.5,0-1,0.2-1.3,0.6c-0.3,0.4-0.5,0.9-0.6,1.5v3.6h-2V5.6h2v0.8
	C66.4,5.8,67.2,5.5,68,5.6z"/>
<path d="M69.1,3.2c0-0.3,0.1-0.7,0.4-0.9C69.7,2,70,1.9,70.3,1.9c0.3,0,0.6,0.1,0.8,0.4c0.5,0.5,0.5,1.3,0,1.7c0,0,0,0,0,0
	c-0.2,0.2-0.5,0.4-0.8,0.4c-0.3,0-0.7-0.1-0.9-0.4C69.2,3.8,69.1,3.5,69.1,3.2z M69.3,5.6h2v7.3h-2V5.6z"/>
<path d="M78.3,2.1h2v10.8h-2v-0.8c-0.6,0.7-1.5,1-2.4,1c-0.5,0-0.9-0.1-1.3-0.3c-0.4-0.2-0.8-0.4-1.1-0.8c-0.3-0.3-0.6-0.8-0.8-1.2
	c-0.2-0.5-0.3-1.1-0.3-1.6c0-0.5,0.1-1,0.2-1.4C72.9,7.1,73.4,6.4,74,6c0.3-0.2,0.6-0.4,1-0.5c0.4-0.1,0.7-0.1,1.1-0.1
	c0.8,0,1.6,0.3,2.2,0.9L78.3,2.1z M78.3,9.2c0-0.6-0.2-1.1-0.6-1.6c-0.4-0.4-0.9-0.6-1.4-0.6c-0.5,0-1,0.2-1.4,0.6
	c-0.4,0.4-0.6,1-0.6,1.6c0,0.6,0.2,1.2,0.6,1.6c0.4,0.4,0.9,0.6,1.4,0.6c0.5,0,1-0.2,1.4-0.6C78.1,10.4,78.3,9.8,78.3,9.2z"/>
<path d="M87.3,7.3l-1.8,0.4c-0.1-0.2-0.2-0.4-0.4-0.5c-0.2-0.1-0.5-0.2-0.7-0.2c-0.2,0-0.4,0-0.6,0.1c-0.1,0.1-0.2,0.2-0.3,0.4
	c0,0.1,0,0.3,0.1,0.4c0.1,0.1,0.2,0.2,0.4,0.3l1.5,0.4c0.5,0.1,1,0.4,1.3,0.8c0.3,0.4,0.4,0.9,0.4,1.4c0,0.7-0.3,1.3-0.8,1.7
	c-0.6,0.4-1.3,0.7-2,0.6c-0.7,0-1.4-0.2-2.1-0.6c-0.5-0.3-0.9-0.9-1-1.5l1.9-0.3c0,0.2,0.2,0.4,0.4,0.5c0.2,0.2,0.5,0.2,0.8,0.2
	c0.6,0,0.9-0.2,0.9-0.6c0-0.2-0.2-0.4-0.6-0.5c-0.7-0.2-1.2-0.3-1.4-0.4c-0.5-0.1-1-0.5-1.3-0.9c-0.3-0.4-0.5-0.9-0.5-1.4
	c0-0.7,0.3-1.3,0.8-1.7c0.5-0.5,1.2-0.7,1.9-0.7c0.7,0,1.3,0.2,1.9,0.5C86.8,6.2,87.2,6.7,87.3,7.3z"/>
<path class="st0" d="M18.1,17.4h-0.2c-0.1,0-0.3,0-0.4,0c-0.1,0-0.2-0.1-0.3-0.2c-0.1-0.1-0.1-0.3,0-0.4l0.2-0.6
	c0.1-0.4,0.2-0.8,0.3-1c0.1-0.1,0-0.2-0.1-0.3c-0.2-0.2-0.4-0.5-0.4-0.8c-0.1-0.3-0.1-0.6,0-0.9c0.1-0.3,0.2-0.5,0.5-0.7
	c0.1-0.1,0.1-0.2,0.1-0.3V5.7c0-0.1,0-0.2,0-0.2c0,0-0.1,0-0.2,0L12,7.2l-1.1,0.4c-0.3,0.1-0.7,0.1-1,0C7.8,6.9,6.2,6.4,5.1,6
	C3.3,5.3,1.7,4.7,0.3,4.2C0.3,4.2,0.2,4.1,0.1,4C0.1,4,0,3.8,0.1,3.7c0-0.1,0-0.2,0.1-0.3c0.1-0.1,0.1-0.1,0.2-0.1
	c1-0.4,2.4-0.9,4.3-1.5l1.7-0.6C6.9,1,7.6,0.8,8.6,0.5l1-0.3c0.6-0.2,1.3-0.2,1.9,0c1.9,0.6,3.4,1.1,4.5,1.5
	c1.7,0.6,3.2,1.2,4.5,1.8h0.1C20.9,3.5,21,3.8,21,4c0,0.1,0,0.2-0.1,0.3c-0.1,0.1-0.2,0.1-0.3,0.1c-1,0.3-1.7,0.6-2.1,0.7
	c-0.1,0-0.1,0.1-0.1,0.1c0,0.1,0,0.1,0,0.2v6.7c0,0.1,0,0.2,0.1,0.2c0.3,0.2,0.5,0.4,0.6,0.7c0.1,0.3,0.1,0.7,0.1,1
	c-0.1,0.3-0.2,0.6-0.5,0.9c0,0-0.1,0.1-0.1,0.1c0,0.1,0,0.1,0,0.2l0.4,1.5c0.1,0.5,0,0.7-0.4,0.7L18.1,17.4z M3.7,7.9V7.5
	c0-0.4,0-0.7,0-0.9c0-0.1,0-0.1,0-0.2c0,0,0.1,0,0.2,0c1.7,0.7,3,1.1,4,1.4l2.2,0.7c0.2,0.1,0.4,0.1,0.6,0c0.2,0,0.4-0.1,0.6-0.2
	c0.8-0.2,1.8-0.6,3.3-1.1l2.4-0.8c0.1,0,0.2,0,0.3,0c0,0.1,0,0.2,0,0.3v2.3c0,0.5-0.1,1-0.4,1.3c-0.4,0.5-0.9,0.9-1.5,1.1
	c-1.1,0.5-2.3,0.7-3.5,0.8c-1.3,0.1-2.6,0.1-3.8-0.2c-1-0.1-2-0.5-2.8-1c-0.4-0.2-0.7-0.5-1-0.9C3.9,10,3.7,9.6,3.7,9.1V7.9z"/>
</svg>
